<svg width="80" height="50" viewBox="0 0 80 50" fill="none" xmlns="http://www.w3.org/2000/svg">
<path d="M0 2C0 0.895432 0.895431 0 2 0H78C79.1046 0 80 0.89543 80 2V48C80 49.1046 79.1046 50 78 50H2C0.895429 50 0 49.1046 0 48V2Z" fill="#F3F2F1"/>
<path d="M16.028 32V17.8H17.428V30.76H25.628V32H16.028ZM31.4185 32.2C30.6585 32.2 29.9652 32.06 29.3385 31.78C28.7118 31.4867 28.1652 31.0933 27.6985 30.6C27.2452 30.1067 26.8918 29.5333 26.6385 28.88C26.3852 28.2267 26.2585 27.54 26.2585 26.82C26.2585 26.0867 26.3852 25.3933 26.6385 24.74C26.9052 24.0867 27.2652 23.5133 27.7185 23.02C28.1852 22.5267 28.7318 22.1333 29.3585 21.84C29.9852 21.5467 30.6718 21.4 31.4185 21.4C32.1652 21.4 32.8518 21.5467 33.4785 21.84C34.1185 22.1333 34.6652 22.5267 35.1185 23.02C35.5852 23.5133 35.9452 24.0867 36.1985 24.74C36.4652 25.3933 36.5985 26.0867 36.5985 26.82C36.5985 27.54 36.4718 28.2267 36.2185 28.88C35.9652 29.5333 35.6052 30.1067 35.1385 30.6C34.6852 31.0933 34.1385 31.4867 33.4985 31.78C32.8718 32.06 32.1785 32.2 31.4185 32.2ZM27.6385 26.84C27.6385 27.4267 27.7385 27.9733 27.9385 28.48C28.1385 28.9733 28.4052 29.4133 28.7385 29.8C29.0852 30.1733 29.4852 30.4667 29.9385 30.68C30.4052 30.8933 30.8985 31 31.4185 31C31.9385 31 32.4252 30.8933 32.8785 30.68C33.3452 30.4533 33.7518 30.1533 34.0985 29.78C34.4452 29.3933 34.7185 28.9467 34.9185 28.44C35.1185 27.9333 35.2185 27.3867 35.2185 26.8C35.2185 26.2267 35.1185 25.6867 34.9185 25.18C34.7185 24.66 34.4452 24.2133 34.0985 23.84C33.7518 23.4533 33.3452 23.1533 32.8785 22.94C32.4252 22.7133 31.9385 22.6 31.4185 22.6C30.8985 22.6 30.4118 22.7133 29.9585 22.94C29.5052 23.1533 29.1052 23.4533 28.7585 23.84C28.4118 24.2267 28.1385 24.68 27.9385 25.2C27.7385 25.7067 27.6385 26.2533 27.6385 26.84ZM43.053 32.14C42.333 32.14 41.673 31.9933 41.073 31.7C40.4864 31.3933 39.973 30.9933 39.533 30.5C39.1064 30.0067 38.773 29.44 38.533 28.8C38.293 28.16 38.173 27.5 38.173 26.82C38.173 26.1 38.2864 25.4133 38.513 24.76C38.753 24.0933 39.0864 23.5133 39.513 23.02C39.9397 22.5267 40.4464 22.1333 41.033 21.84C41.633 21.5467 42.293 21.4 43.013 21.4C43.9064 21.4 44.6797 21.6267 45.333 22.08C45.9864 22.52 46.5464 23.08 47.013 23.76V21.58H48.233V32.04C48.233 32.76 48.093 33.3933 47.813 33.94C47.5464 34.5 47.1797 34.9667 46.713 35.34C46.2597 35.7133 45.7197 35.9933 45.093 36.18C44.4797 36.3667 43.8264 36.46 43.133 36.46C41.933 36.46 40.9664 36.2467 40.233 35.82C39.4997 35.3933 38.9064 34.82 38.453 34.1L39.293 33.44C39.7064 34.1067 40.253 34.5933 40.933 34.9C41.613 35.22 42.3464 35.38 43.133 35.38C43.6397 35.38 44.1197 35.3067 44.573 35.16C45.0264 35.0267 45.4197 34.82 45.753 34.54C46.0997 34.2733 46.373 33.9267 46.573 33.5C46.773 33.0867 46.873 32.6 46.873 32.04V29.98C46.473 30.6467 45.9264 31.1733 45.233 31.56C44.5397 31.9467 43.813 32.14 43.053 32.14ZM43.433 31C43.833 31 44.2264 30.9267 44.613 30.78C44.9997 30.6333 45.3464 30.44 45.653 30.2C45.973 29.9467 46.2397 29.6667 46.453 29.36C46.6664 29.0533 46.8064 28.74 46.873 28.42V25.2C46.7264 24.8267 46.5264 24.48 46.273 24.16C46.0197 23.84 45.733 23.5667 45.413 23.34C45.093 23.1133 44.7464 22.9333 44.373 22.8C44.013 22.6667 43.6464 22.6 43.273 22.6C42.6864 22.6 42.1597 22.7267 41.693 22.98C41.2397 23.22 40.853 23.54 40.533 23.94C40.213 24.34 39.9664 24.7933 39.793 25.3C39.633 25.8067 39.553 26.32 39.553 26.84C39.553 27.4 39.653 27.9333 39.853 28.44C40.053 28.9467 40.3264 29.3933 40.673 29.78C41.033 30.1533 41.4464 30.4533 41.913 30.68C42.3797 30.8933 42.8864 31 43.433 31ZM51.2363 32V21.58H52.5963V32H51.2363ZM51.2363 19.4V17.4H52.5963V19.4H51.2363ZM64.3518 32H62.9918V26.18C62.9918 24.94 62.8051 24.04 62.4318 23.48C62.0718 22.92 61.5118 22.64 60.7518 22.64C60.3518 22.64 59.9518 22.7133 59.5518 22.86C59.1518 23.0067 58.7785 23.2133 58.4318 23.48C58.0985 23.7467 57.7985 24.0667 57.5318 24.44C57.2651 24.8 57.0718 25.1933 56.9518 25.62V32H55.5918V21.58H56.8318V23.94C57.2585 23.18 57.8651 22.5667 58.6518 22.1C59.4518 21.6333 60.3185 21.4 61.2518 21.4C61.8251 21.4 62.3118 21.5067 62.7118 21.72C63.1118 21.9333 63.4318 22.2333 63.6718 22.62C63.9118 23.0067 64.0851 23.48 64.1918 24.04C64.2985 24.6 64.3518 25.22 64.3518 25.9V32Z" fill="#0078D4"/>
<path d="M2 1H78V-1H2V1ZM79 2V48H81V2H79ZM78 49H2V51H78V49ZM1 48V2H-1V48H1ZM2 49C1.44771 49 1 48.5523 1 48H-1C-1 49.6569 0.343143 51 2 51V49ZM79 48C79 48.5523 78.5523 49 78 49V51C79.6569 51 81 49.6569 81 48H79ZM78 1C78.5523 1 79 1.44771 79 2H81C81 0.343147 79.6569 -1 78 -1V1ZM2 -1C0.343145 -1 -1 0.343148 -1 2H1C1 1.44772 1.44772 1 2 1V-1Z" fill="#0078D4"/>
</svg>
