<svg width="80" height="50" viewBox="0 0 80 50" fill="none" xmlns="http://www.w3.org/2000/svg">
<path d="M0 2C0 0.895432 0.895431 0 2 0H78C79.1046 0 80 0.89543 80 2V48C80 49.1046 79.1046 50 78 50H2C0.895429 50 0 49.1046 0 48V2Z" fill="#0078D4"/>
<path d="M15.1581 20.46C14.7581 20.0067 14.2248 19.64 13.5581 19.36C12.8915 19.08 12.1315 18.94 11.2781 18.94C10.0248 18.94 9.11146 19.18 8.53813 19.66C7.96479 20.1267 7.67813 20.7667 7.67813 21.58C7.67813 22.0067 7.75146 22.36 7.89813 22.64C8.05813 22.9067 8.29813 23.14 8.61813 23.34C8.93813 23.54 9.34479 23.7133 9.83813 23.86C10.3448 24.0067 10.9381 24.1533 11.6181 24.3C12.3781 24.46 13.0581 24.64 13.6581 24.84C14.2715 25.04 14.7915 25.2933 15.2181 25.6C15.6448 25.8933 15.9715 26.2533 16.1981 26.68C16.4248 27.1067 16.5381 27.64 16.5381 28.28C16.5381 28.9333 16.4115 29.5 16.1581 29.98C15.9048 30.46 15.5515 30.86 15.0981 31.18C14.6448 31.5 14.1048 31.74 13.4781 31.9C12.8515 32.0467 12.1648 32.12 11.4181 32.12C9.21813 32.12 7.31813 31.4333 5.71813 30.06L6.41813 28.92C6.67146 29.1867 6.97146 29.44 7.31813 29.68C7.67813 29.92 8.07146 30.1333 8.49813 30.32C8.93813 30.4933 9.40479 30.6333 9.89813 30.74C10.3915 30.8333 10.9115 30.88 11.4581 30.88C12.5915 30.88 13.4715 30.68 14.0981 30.28C14.7381 29.8667 15.0581 29.2467 15.0581 28.42C15.0581 27.98 14.9648 27.6133 14.7781 27.32C14.6048 27.0133 14.3381 26.7533 13.9781 26.54C13.6181 26.3133 13.1715 26.12 12.6381 25.96C12.1048 25.8 11.4848 25.64 10.7781 25.48C10.0315 25.3067 9.37813 25.1267 8.81813 24.94C8.25813 24.7533 7.78479 24.52 7.39813 24.24C7.01146 23.96 6.71813 23.6267 6.51813 23.24C6.33146 22.84 6.23813 22.3533 6.23813 21.78C6.23813 21.1267 6.35813 20.5467 6.59813 20.04C6.85146 19.52 7.20479 19.0933 7.65813 18.76C8.11146 18.4133 8.64479 18.1533 9.25813 17.98C9.87146 17.7933 10.5515 17.7 11.2981 17.7C12.2448 17.7 13.0848 17.8467 13.8181 18.14C14.5648 18.42 15.2381 18.82 15.8381 19.34L15.1581 20.46ZM18.7266 32V21.58H20.0866V32H18.7266ZM18.7266 19.4V17.4H20.0866V19.4H18.7266ZM27.262 32.14C26.542 32.14 25.882 31.9933 25.282 31.7C24.6954 31.3933 24.182 30.9933 23.742 30.5C23.3154 30.0067 22.982 29.44 22.742 28.8C22.502 28.16 22.382 27.5 22.382 26.82C22.382 26.1 22.4954 25.4133 22.722 24.76C22.962 24.0933 23.2954 23.5133 23.722 23.02C24.1487 22.5267 24.6554 22.1333 25.242 21.84C25.842 21.5467 26.502 21.4 27.222 21.4C28.1154 21.4 28.8887 21.6267 29.542 22.08C30.1954 22.52 30.7554 23.08 31.222 23.76V21.58H32.442V32.04C32.442 32.76 32.302 33.3933 32.022 33.94C31.7554 34.5 31.3887 34.9667 30.922 35.34C30.4687 35.7133 29.9287 35.9933 29.302 36.18C28.6887 36.3667 28.0354 36.46 27.342 36.46C26.142 36.46 25.1754 36.2467 24.442 35.82C23.7087 35.3933 23.1154 34.82 22.662 34.1L23.502 33.44C23.9154 34.1067 24.462 34.5933 25.142 34.9C25.822 35.22 26.5554 35.38 27.342 35.38C27.8487 35.38 28.3287 35.3067 28.782 35.16C29.2354 35.0267 29.6287 34.82 29.962 34.54C30.3087 34.2733 30.582 33.9267 30.782 33.5C30.982 33.0867 31.082 32.6 31.082 32.04V29.98C30.682 30.6467 30.1354 31.1733 29.442 31.56C28.7487 31.9467 28.022 32.14 27.262 32.14ZM27.642 31C28.042 31 28.4354 30.9267 28.822 30.78C29.2087 30.6333 29.5554 30.44 29.862 30.2C30.182 29.9467 30.4487 29.6667 30.662 29.36C30.8754 29.0533 31.0154 28.74 31.082 28.42V25.2C30.9354 24.8267 30.7354 24.48 30.482 24.16C30.2287 23.84 29.942 23.5667 29.622 23.34C29.302 23.1133 28.9554 22.9333 28.582 22.8C28.222 22.6667 27.8554 22.6 27.482 22.6C26.8954 22.6 26.3687 22.7267 25.902 22.98C25.4487 23.22 25.062 23.54 24.742 23.94C24.422 24.34 24.1754 24.7933 24.002 25.3C23.842 25.8067 23.762 26.32 23.762 26.84C23.762 27.4 23.862 27.9333 24.062 28.44C24.262 28.9467 24.5354 29.3933 24.882 29.78C25.242 30.1533 25.6554 30.4533 26.122 30.68C26.5887 30.8933 27.0954 31 27.642 31ZM44.2053 32H42.8453V26.18C42.8453 24.94 42.6586 24.04 42.2853 23.48C41.9253 22.92 41.3653 22.64 40.6053 22.64C40.2053 22.64 39.8053 22.7133 39.4053 22.86C39.0053 23.0067 38.632 23.2133 38.2853 23.48C37.952 23.7467 37.652 24.0667 37.3853 24.44C37.1186 24.8 36.9253 25.1933 36.8053 25.62V32H35.4453V21.58H36.6853V23.94C37.112 23.18 37.7186 22.5667 38.5053 22.1C39.3053 21.6333 40.172 21.4 41.1053 21.4C41.6786 21.4 42.1653 21.5067 42.5653 21.72C42.9653 21.9333 43.2853 22.2333 43.5253 22.62C43.7653 23.0067 43.9386 23.48 44.0453 24.04C44.152 24.6 44.2053 25.22 44.2053 25.9V32ZM55.4631 32.2C54.3298 32.2 53.4831 31.8267 52.9231 31.08C52.3765 30.32 52.1031 29.1933 52.1031 27.7V21.58H53.4631V27.46C53.4631 29.82 54.2698 31 55.8831 31C56.2831 31 56.6765 30.9333 57.0631 30.8C57.4498 30.6667 57.8031 30.4733 58.1231 30.22C58.4565 29.9667 58.7498 29.6667 59.0031 29.32C59.2698 28.9733 59.4831 28.58 59.6431 28.14V21.58H61.0031V30.24C61.0031 30.6133 61.1631 30.8 61.4831 30.8V32C61.3231 32.0267 61.1898 32.04 61.0831 32.04C60.9898 32.04 60.9231 32.04 60.8831 32.04C60.5631 32.0267 60.3031 31.9133 60.1031 31.7C59.9031 31.4867 59.8031 31.2 59.8031 30.84V29.64C59.3498 30.4533 58.7298 31.0867 57.9431 31.54C57.1698 31.98 56.3431 32.2 55.4631 32.2ZM69.3981 32.2C68.5181 32.2 67.7381 31.98 67.0581 31.54C66.3915 31.0867 65.8515 30.52 65.4381 29.84V36.26H64.0781V21.58H65.2981V23.6C65.7248 22.9467 66.2781 22.42 66.9581 22.02C67.6381 21.6067 68.3781 21.4 69.1781 21.4C69.8981 21.4 70.5581 21.5533 71.1581 21.86C71.7581 22.1533 72.2781 22.5533 72.7181 23.06C73.1581 23.5533 73.4981 24.1267 73.7381 24.78C73.9915 25.4333 74.1181 26.1067 74.1181 26.8C74.1181 27.5333 74.0048 28.2267 73.7781 28.88C73.5515 29.5333 73.2248 30.1067 72.7981 30.6C72.3848 31.0933 71.8848 31.4867 71.2981 31.78C70.7248 32.06 70.0915 32.2 69.3981 32.2ZM69.0181 31C69.5781 31 70.0848 30.88 70.5381 30.64C71.0048 30.4 71.3981 30.0867 71.7181 29.7C72.0515 29.3 72.3048 28.8533 72.4781 28.36C72.6515 27.8533 72.7381 27.3333 72.7381 26.8C72.7381 26.24 72.6381 25.7067 72.4381 25.2C72.2381 24.6933 71.9648 24.2467 71.6181 23.86C71.2715 23.4733 70.8581 23.1667 70.3781 22.94C69.9115 22.7133 69.4048 22.6 68.8581 22.6C68.5115 22.6 68.1448 22.6733 67.7581 22.82C67.3848 22.9533 67.0315 23.14 66.6981 23.38C66.3781 23.6067 66.0981 23.88 65.8581 24.2C65.6315 24.5067 65.4915 24.8333 65.4381 25.18V28.38C65.5981 28.7533 65.7981 29.1 66.0381 29.42C66.2915 29.74 66.5715 30.02 66.8781 30.26C67.1981 30.4867 67.5381 30.6667 67.8981 30.8C68.2581 30.9333 68.6315 31 69.0181 31Z" fill="white" fill-opacity="0.9"/>
<path d="M2 1H78V-1H2V1ZM79 2V48H81V2H79ZM78 49H2V51H78V49ZM1 48V2H-1V48H1ZM2 49C1.44771 49 1 48.5523 1 48H-1C-1 49.6569 0.343143 51 2 51V49ZM79 48C79 48.5523 78.5523 49 78 49V51C79.6569 51 81 49.6569 81 48H79ZM78 1C78.5523 1 79 1.44771 79 2H81C81 0.343147 79.6569 -1 78 -1V1ZM2 -1C0.343145 -1 -1 0.343148 -1 2H1C1 1.44772 1.44772 1 2 1V-1Z" fill="#1651AA"/>
</svg>
